<svg width="160" height="57" viewBox="0 0 160 57" fill="none" xmlns="http://www.w3.org/2000/svg">
<path d="M68.0886 29.6926C68.0886 37.1881 62.2121 42.7113 55.0003 42.7113C47.7886 42.7113 41.9121 37.1881 41.9121 29.6926C41.9121 22.1444 47.7886 16.674 55.0003 16.674C62.2121 16.674 68.0886 22.1444 68.0886 29.6926ZM62.3592 29.6926C62.3592 25.0087 58.9533 21.804 55.0003 21.804C51.0474 21.804 47.6415 25.0087 47.6415 29.6926C47.6415 34.3296 51.0474 37.5813 55.0003 37.5813C58.9533 37.5813 62.3592 34.3237 62.3592 29.6926Z" fill="#EA4335"/>
<path d="M96.323 29.6926C96.323 37.1881 90.4465 42.7113 83.2347 42.7113C76.023 42.7113 70.1465 37.1881 70.1465 29.6926C70.1465 22.1503 76.023 16.674 83.2347 16.674C90.4465 16.674 96.323 22.1444 96.323 29.6926ZM90.5935 29.6926C90.5935 25.0087 87.1877 21.804 83.2347 21.804C79.2818 21.804 75.8759 25.0087 75.8759 29.6926C75.8759 34.3296 79.2818 37.5813 83.2347 37.5813C87.1877 37.5813 90.5935 34.3237 90.5935 29.6926Z" fill="#FBBC05"/>
<path d="M123.383 17.4605V40.8331C123.383 50.4474 117.701 54.3742 110.983 54.3742C104.659 54.3742 100.853 50.154 99.4182 46.7027L104.406 44.6307C105.295 46.7496 107.471 49.25 110.977 49.25C115.277 49.25 117.942 46.6029 117.942 41.6196V39.7472H117.742C116.459 41.3261 113.989 42.7055 110.871 42.7055C104.348 42.7055 98.3711 37.0355 98.3711 29.7396C98.3711 22.3909 104.348 16.674 110.871 16.674C113.983 16.674 116.453 18.0533 117.742 19.5853H117.942V17.4663H123.383V17.4605ZM118.348 29.7396C118.348 25.1555 115.283 21.804 111.383 21.804C107.43 21.804 104.118 25.1555 104.118 29.7396C104.118 34.2768 107.43 37.5813 111.383 37.5813C115.283 37.5813 118.348 34.2768 118.348 29.7396Z" fill="#4285F4"/>
<path d="M132.354 3.76086V41.913H126.766V3.76086H132.354Z" fill="#34A853"/>
<path d="M154.128 33.9774L158.575 36.9357C157.14 39.0546 153.681 42.7055 147.705 42.7055C140.293 42.7055 134.758 36.9885 134.758 29.6868C134.758 21.9448 140.34 16.6681 147.064 16.6681C153.834 16.6681 157.146 22.0446 158.228 24.95L158.823 26.4292L141.381 33.637C142.717 36.249 144.793 37.5813 147.705 37.5813C150.623 37.5813 152.646 36.1492 154.128 33.9774ZM140.44 29.2935L152.099 24.4629C151.458 22.837 149.528 21.7042 147.258 21.7042C144.346 21.7042 140.293 24.2692 140.44 29.2935Z" fill="#EA4335"/>
<path d="M20.758 26.3059V20.7826H39.4109C39.5933 21.7452 39.6874 22.8839 39.6874 24.1165C39.6874 28.2604 38.5521 33.3846 34.8933 37.0354C31.3345 40.7333 26.7874 42.7054 20.7639 42.7054C9.59917 42.7054 0.210938 33.6311 0.210938 22.4907C0.210938 11.3502 9.59917 2.27588 20.7639 2.27588C26.9403 2.27588 31.3404 4.69414 34.6462 7.8461L30.7403 11.7435C28.3698 9.52479 25.158 7.79914 20.758 7.79914C12.6051 7.79914 6.22859 14.3554 6.22859 22.4907C6.22859 30.6259 12.6051 37.1822 20.758 37.1822C26.0462 37.1822 29.058 35.0633 30.9874 33.1381C32.5521 31.5767 33.5815 29.3463 33.9874 26.3L20.758 26.3059Z" fill="#4285F4"/>
</svg>
