<svg width="32" height="32" viewBox="0 0 32 32" fill="none" xmlns="http://www.w3.org/2000/svg">
<rect width="32" height="32" rx="7" fill="white"/>
<path d="M15.5372 7.14604C15.7057 6.72932 16.2958 6.72932 16.4643 7.14604L18.4817 12.1346C18.5533 12.3117 18.7196 12.4325 18.9102 12.4459L24.278 12.823C24.7264 12.8545 24.9087 13.4157 24.5645 13.7047L20.4435 17.165C20.2972 17.2878 20.2337 17.4833 20.2798 17.6687L21.5799 22.8903C21.6885 23.3265 21.2112 23.6733 20.8299 23.4352L16.2656 20.5852C16.1035 20.484 15.898 20.484 15.7359 20.5852L11.1716 23.4352C10.7903 23.6733 10.313 23.3265 10.4216 22.8903L11.7217 17.6687C11.7678 17.4833 11.7043 17.2878 11.558 17.165L7.43703 13.7047C7.09278 13.4157 7.2751 12.8545 7.7235 12.823L13.0913 12.4459C13.2819 12.4325 13.4482 12.3117 13.5198 12.1346L15.5372 7.14604Z" fill="#DFDFE0"/>
</svg>
