<svg width="160" height="57" viewBox="0 0 160 57" fill="none" xmlns="http://www.w3.org/2000/svg">
<path d="M42.1165 21.8872H58.2762V24.8649H51.9135V41.6507H48.4259V24.8649H42.0898L42.1165 21.8872ZM57.584 27.3419H60.5657V30.1088H60.619C60.7255 29.7136 60.9118 29.3446 61.178 28.9757C61.4443 28.6068 61.7637 28.2642 62.1631 27.9744C62.5358 27.6581 62.9617 27.421 63.4409 27.2365C63.8935 27.0521 64.3727 26.9467 64.8519 26.9467C65.2246 26.9467 65.4908 26.973 65.624 26.973C65.7571 26.9994 65.9168 27.0257 66.0499 27.0257V30.0561C65.8369 30.0034 65.5973 29.9771 65.3577 29.9507C65.1181 29.9244 64.9052 29.898 64.6656 29.898C64.1331 29.898 63.6273 30.0034 63.1481 30.2142C62.6689 30.425 62.2695 30.7413 61.8968 31.1365C61.5507 31.5581 61.2579 32.0588 61.0449 32.6649C60.8319 33.271 60.7255 33.9825 60.7255 34.773V41.5717H57.5308L57.584 27.3419ZM80.6922 41.6507H77.5507V39.648H77.4975C77.0982 40.3859 76.5125 40.9392 75.7404 41.3872C74.9684 41.8352 74.1697 42.046 73.3711 42.046C71.4809 42.046 70.0965 41.598 69.2446 40.6494C68.3927 39.7271 67.9667 38.3041 67.9667 36.4331V27.3419H71.1614V36.1169C71.1614 37.3818 71.401 38.2777 71.9068 38.7784C72.386 39.3054 73.0782 39.569 73.9567 39.569C74.6223 39.569 75.1814 39.4636 75.6339 39.2527C76.0865 39.0419 76.4592 38.7784 76.7255 38.4359C77.0183 38.0933 77.2047 37.6717 77.3378 37.1973C77.4709 36.723 77.5241 36.196 77.5241 35.6426V27.3419H80.7188V41.6507H80.6922ZM86.1231 37.0656C86.2296 37.9879 86.5757 38.6203 87.188 39.0156C87.8003 39.3845 88.5458 39.569 89.3977 39.569C89.6905 39.569 90.0366 39.5426 90.4093 39.4899C90.782 39.4372 91.1548 39.3581 91.4742 39.2264C91.8203 39.0946 92.0865 38.9102 92.2995 38.6467C92.5125 38.3831 92.619 38.0669 92.5924 37.6717C92.5657 37.2764 92.4326 36.9338 92.1398 36.6703C91.8469 36.4068 91.5008 36.2223 91.0749 36.0379C90.6489 35.8798 90.1431 35.748 89.584 35.6426C89.025 35.5372 88.4659 35.4054 87.8802 35.2737C87.2945 35.1419 86.7088 34.9838 86.1498 34.7994C85.5907 34.6149 85.1115 34.3777 84.6589 34.0352C84.2329 33.719 83.8602 33.3237 83.6206 32.823C83.3544 32.3223 83.2213 31.7426 83.2213 31.0048C83.2213 30.2142 83.4077 29.5818 83.807 29.0548C84.1797 28.5277 84.6855 28.1061 85.2712 27.7899C85.8569 27.4737 86.5225 27.2365 87.2413 27.1048C87.9601 26.973 88.6523 26.9203 89.2912 26.9203C90.0366 26.9203 90.7554 26.9994 91.421 27.1575C92.0865 27.3156 92.7255 27.5527 93.2579 27.9217C93.817 28.2642 94.2696 28.7386 94.6156 29.2919C94.9884 29.8453 95.2013 30.5304 95.3078 31.321H91.98C91.8203 30.5568 91.4742 30.0561 90.9418 29.7926C90.3827 29.5291 89.7704 29.3973 89.0516 29.3973C88.8386 29.3973 88.5458 29.4237 88.2529 29.45C87.9334 29.5027 87.6672 29.5554 87.3744 29.6609C87.1082 29.7663 86.8686 29.9244 86.6822 30.1088C86.4958 30.2933 86.3894 30.5568 86.3894 30.873C86.3894 31.2683 86.5225 31.5581 86.7887 31.7953C87.0549 32.0325 87.401 32.2169 87.8536 32.4014C88.2795 32.5595 88.7854 32.6913 89.3444 32.7967C89.9035 32.9021 90.4892 33.0338 91.0749 33.1656C91.6606 33.2973 92.2196 33.4554 92.7787 33.6399C93.3378 33.8244 93.8436 34.0615 94.2696 34.4041C94.6955 34.7203 95.0682 35.1156 95.3345 35.5899C95.6007 36.0642 95.7338 36.6703 95.7338 37.3554C95.7338 38.1987 95.5474 38.9102 95.1481 39.5163C94.7488 40.096 94.2429 40.5967 93.6306 40.9656C93.0183 41.3345 92.2995 41.598 91.5541 41.7825C90.782 41.9406 90.0366 42.046 89.2912 42.046C88.386 42.046 87.5341 41.9406 86.7621 41.7298C85.99 41.519 85.2978 41.2027 84.7388 40.8075C84.1797 40.3859 83.7271 39.8852 83.4077 39.2527C83.0882 38.6467 82.9018 37.9088 82.8752 37.0392H86.0965V37.0656H86.1231ZM96.6389 27.3419H99.0616V23.0203H102.256V27.3156H105.131V29.6609H102.256V37.3027C102.256 37.6453 102.283 37.9088 102.309 38.1723C102.336 38.4095 102.416 38.6203 102.496 38.7784C102.602 38.9365 102.762 39.0683 102.948 39.1473C103.161 39.2264 103.428 39.2791 103.8 39.2791C104.013 39.2791 104.253 39.2791 104.466 39.2527C104.679 39.2264 104.918 39.2 105.131 39.1473V41.598C104.785 41.6507 104.439 41.6771 104.093 41.7034C103.747 41.7561 103.428 41.7561 103.055 41.7561C102.203 41.7561 101.537 41.6771 101.032 41.519C100.526 41.3609 100.126 41.1237 99.8336 40.8338C99.5408 40.5176 99.3544 40.1487 99.2479 39.7007C99.1414 39.2527 99.0882 38.6994 99.0616 38.1196V29.6872H96.6389V27.2892V27.3419ZM107.368 27.3419H110.376V29.2919H110.429C110.882 28.4487 111.494 27.869 112.293 27.5C113.092 27.1311 113.943 26.9467 114.902 26.9467C116.047 26.9467 117.032 27.1311 117.884 27.5527C118.735 27.948 119.428 28.475 119.987 29.1865C120.546 29.8717 120.972 30.6886 121.238 31.6109C121.504 32.5332 121.664 33.5345 121.664 34.5622C121.664 35.5372 121.531 36.4595 121.291 37.3554C121.025 38.2514 120.652 39.0683 120.146 39.7534C119.641 40.4386 119.002 40.9919 118.203 41.4136C117.404 41.8352 116.499 42.046 115.434 42.046C114.982 42.046 114.503 41.9933 114.05 41.9142C113.597 41.8352 113.145 41.7034 112.719 41.519C112.293 41.3345 111.894 41.0973 111.547 40.8075C111.175 40.5176 110.882 40.175 110.642 39.8061H110.589V46.9473H107.394V27.3419H107.368ZM118.522 34.5095C118.522 33.8771 118.443 33.2446 118.256 32.6386C118.097 32.0325 117.83 31.5054 117.484 31.0311C117.138 30.5568 116.712 30.1879 116.233 29.898C115.727 29.6082 115.141 29.4764 114.503 29.4764C113.171 29.4764 112.16 29.9244 111.468 30.8467C110.802 31.769 110.456 33.0075 110.456 34.5359C110.456 35.2737 110.536 35.9325 110.722 36.5386C110.909 37.1446 111.148 37.6717 111.521 38.1196C111.867 38.5676 112.293 38.9102 112.799 39.1737C113.305 39.4372 113.864 39.569 114.529 39.569C115.275 39.569 115.86 39.4109 116.366 39.121C116.872 38.8311 117.271 38.4358 117.617 37.9879C117.937 37.5136 118.176 36.9865 118.309 36.3805C118.443 35.748 118.522 35.1419 118.522 34.5095ZM124.14 21.8872H127.334V24.8649H124.14V21.8872ZM124.14 27.3419H127.334V41.6507H124.14V27.3419ZM130.183 21.8872H133.378V41.6507H130.183V21.8872ZM143.121 42.046C141.977 42.046 140.938 41.8615 140.033 41.4663C139.128 41.071 138.383 40.5703 137.744 39.9115C137.131 39.2527 136.652 38.4359 136.333 37.5136C136.013 36.5913 135.827 35.5636 135.827 34.4831C135.827 33.4027 135.987 32.4014 136.333 31.4791C136.652 30.5568 137.131 29.7663 137.744 29.0811C138.356 28.4223 139.128 27.8953 140.033 27.5264C140.938 27.1575 141.977 26.9467 143.121 26.9467C144.266 26.9467 145.305 27.1311 146.21 27.5264C147.115 27.8953 147.86 28.4223 148.499 29.0811C149.112 29.7399 149.591 30.5568 149.91 31.4791C150.23 32.4014 150.416 33.4027 150.416 34.4831C150.416 35.5899 150.256 36.5913 149.91 37.5136C149.564 38.4359 149.112 39.2264 148.499 39.9115C147.887 40.5703 147.115 41.0973 146.21 41.4663C145.305 41.8352 144.293 42.046 143.121 42.046ZM143.121 39.5426C143.814 39.5426 144.453 39.3845 144.958 39.0946C145.491 38.8048 145.89 38.4095 146.236 37.9352C146.582 37.4609 146.822 36.9075 146.982 36.3277C147.141 35.7217 147.221 35.1156 147.221 34.4831C147.221 33.8771 147.141 33.271 146.982 32.6649C146.822 32.0588 146.582 31.5318 146.236 31.0575C145.89 30.5831 145.464 30.2142 144.958 29.9244C144.426 29.6345 143.814 29.4764 143.121 29.4764C142.429 29.4764 141.79 29.6345 141.285 29.9244C140.752 30.2142 140.353 30.6095 140.007 31.0575C139.661 31.5318 139.421 32.0588 139.261 32.6649C139.102 33.271 139.022 33.8771 139.022 34.4831C139.022 35.1156 139.102 35.7217 139.261 36.3277C139.421 36.9338 139.661 37.4609 140.007 37.9352C140.353 38.4095 140.779 38.8048 141.285 39.0946C141.817 39.4109 142.429 39.5426 143.121 39.5426ZM151.374 27.3419H153.797V23.0203H156.992V27.3156H159.867V29.6609H156.992V37.3027C156.992 37.6453 157.018 37.9088 157.045 38.1723C157.072 38.4095 157.151 38.6203 157.231 38.7784C157.338 38.9365 157.498 39.0683 157.684 39.1473C157.897 39.2264 158.163 39.2791 158.536 39.2791C158.749 39.2791 158.988 39.2791 159.201 39.2527C159.414 39.2264 159.654 39.2 159.867 39.1473V41.598C159.521 41.6507 159.175 41.6771 158.829 41.7034C158.483 41.7561 158.163 41.7561 157.79 41.7561C156.938 41.7561 156.273 41.6771 155.767 41.519C155.261 41.3609 154.862 41.1237 154.569 40.8338C154.276 40.5176 154.09 40.1487 153.983 39.7007C153.877 39.2527 153.824 38.6994 153.797 38.1196V29.6872H151.374V27.2892V27.3419Z" fill="black"/>
<path d="M38.3891 21.8871H23.7734L19.2742 8.13171L14.7485 21.8871L0.132812 21.8608L11.9531 30.3723L7.42732 44.1277L19.2476 35.6162L31.0679 44.1277L26.5688 30.3723L38.3891 21.8871Z" fill="#00B67A"/>
<path d="M27.5815 33.4818L26.5699 30.3723L19.2754 35.6162L27.5815 33.4818Z" fill="#005128"/>
</svg>
